<svg id="Capa_1" data-name="Capa 1" xmlns="http://www.w3.org/2000/svg" viewBox="0 0 400 400"><defs><style>.cls-1{fill:#002571;}.cls-2{fill:#d19008;}</style></defs><title>FEDEPAL Iconos</title><circle class="cls-1" cx="200" cy="200" r="150" transform="translate(-82.84 200) rotate(-45)"/><path class="cls-2" d="M236.75,150.7c-1.6-16.7,5.52-28.91,19.67-33.41a28.81,28.81,0,0,1,33.5,13c6.58,11.31,5.25,27.61-7.95,37.81,2.8,1.29,5.64,2.41,8.3,3.86,12.89,7.08,21.59,17.68,25.6,31.82,1,3.63.63,7.67.72,11.53,0,.58-.88,1.47-1.53,1.71a9.44,9.44,0,0,1-3.11.3q-23.1,0-46.18-.07c-1.8,0-2.67.22-2.68,2.4,0,1.83-.84,3.67-1.46,5.46a11.87,11.87,0,0,1-1.57,3.17c-3.84,5.27-3.72,11-2.6,17.1,1.6,8.73-2.23,15.47-10.43,19l-4.3,1.83c2.47,5.33,4.88,10.5,7.28,15.67,1.89,4.05,3.73,8.12,5.67,12.14,1,2.13,1.24,4.17-.31,6.09s-3.47,2.09-5.71,1.65c-3.8-.75-7.61-1.43-11.44-2a2.43,2.43,0,0,0-1.92,1c-2,3.29-4,6.65-5.88,10a4.19,4.19,0,0,1-3.75,2.25c-3.51.36-5.3-1-6.67-4.2-3.25-7.61-7-15-10.33-22.56A6.69,6.69,0,0,0,205,282.2c-3.17-.92-6,0-8.82.95-.55.19-1,1-1.25,1.66-4,8.5-8,17-11.87,25.54-.88,1.92-2.06,2.59-4.22,2.73-3.16.21-5-.88-6.31-3.7a85.6,85.6,0,0,0-5.05-8.68,2.46,2.46,0,0,0-2-.95c-3.89.57-7.77,1.28-11.63,2a5.14,5.14,0,0,1-5.48-1.8,5,5,0,0,1-.39-5.57l12.21-26.25c.27-.59.52-1.19.86-2-1.39-.61-2.69-1.2-4-1.75-8.45-3.58-12-10-10.75-19a57.72,57.72,0,0,0,.87-7.62,12.82,12.82,0,0,0-1.12-4.9c-1.58-3.8-3.39-7.52-5.09-11.28a3.68,3.68,0,0,1-.24-.95c-.54-3.49-.54-3.49-4.18-3.49H91.34c-4.36,0-5.71-1.47-5.08-5.83a52.89,52.89,0,0,1,34.63-42.62c.35-.12.68-.29,1.07-.46-14.11-11-14.3-28-7.65-38.65a28.9,28.9,0,0,1,33.7-12.1C161.58,122,168.36,134,167,151.07c2.72-1.51,5.32-3.1,8.06-4.43s5.66-2.41,8.69-3.68c-10.82-7.82-15.94-18.39-14.55-31.71a31.37,31.37,0,0,1,11.73-21.41,33.05,33.05,0,1,1,39.46,52.93Zm-83,98.33c.16,3.41,1.59,6,4.81,7.49,2.63,1.2,5.28,2.33,7.95,3.43a16.9,16.9,0,0,1,8.16,6.86c1.46,2.34,3,4.64,4.54,6.92a7.93,7.93,0,0,0,9.44,3.41c2.71-.78,5.4-1.61,8.09-2.46a16.68,16.68,0,0,1,10.27,0c2.57.82,5.15,1.57,7.73,2.34,4.33,1.28,7.52.1,10-3.68q2.33-3.54,4.64-7.1a15.58,15.58,0,0,1,7.13-6c2.78-1.17,5.57-2.34,8.33-3.57a8.19,8.19,0,0,0,5.05-8.17,38.42,38.42,0,0,0-.56-4.29c-1.32-6.44-.75-12.53,2.94-18.16a33.27,33.27,0,0,0,2.14-4.21,7.79,7.79,0,0,0-1.71-9.7c-2.12-2.06-4.31-4.05-6.46-6.08a15.51,15.51,0,0,1-4.65-7.85c-.73-3.13-1.46-6.26-2.28-9.36a7.78,7.78,0,0,0-7.5-6.14c-2.49-.14-5-.34-7.48-.41a18.09,18.09,0,0,1-11.28-4c-1.78-1.46-3.67-2.79-5.51-4.17-4.05-3-7.31-3-11.31,0-2.16,1.61-4.31,3.24-6.48,4.84a14.8,14.8,0,0,1-7.95,3.12l-9.83.66a7.9,7.9,0,0,0-7.64,6.24c-.69,2.59-1.32,5.21-1.85,7.84a17.76,17.76,0,0,1-5.84,10c-1.92,1.69-3.78,3.46-5.62,5.24a7.88,7.88,0,0,0-1.75,9.88c1.27,2.59,2.56,5.18,3.91,7.73a17.16,17.16,0,0,1,1.6,10.73C154.42,243.25,154.12,246.12,153.78,249Zm48-108.59c13.73.08,25.23-11.13,25.31-24.68a25.18,25.18,0,1,0-25.31,24.68Zm-40.77,39c-12.07-7.4-29.86-8.35-43.94-.46-12,6.72-19.39,16.84-22.52,30.26a7,7,0,0,0,.88.18q23.26,0,46.54,0a2.43,2.43,0,0,0,1.52-.63c2.64-2.55,5.17-5.22,7.86-7.72a12.33,12.33,0,0,0,3.64-6.36C156.26,189.43,156.55,183.7,161,179.47Zm148.3,29.94c-4.38-16.87-14.23-28.34-30.51-33.69A43.45,43.45,0,0,0,243.45,179c1.39,3.23,2.79,6,3.8,9,.83,2.41,1,5,1.83,7.44a15.61,15.61,0,0,0,3,5.15c2.36,2.64,5.14,4.9,7.56,7.48a3.84,3.84,0,0,0,3.16,1.45q22.08-.07,44.17,0Zm-64.75-40c-12.11-14.94-27.71-22.21-46.89-20.84-15.85,1.13-28.64,8.41-38.42,20.91,3.25,1.86,6.2,3.57,9.18,5.22a3.11,3.11,0,0,0,1.65.34c3.34-.19,6.7-.28,10-.73a13.47,13.47,0,0,0,5.08-1.78c2.45-1.51,4.65-3.43,7-5.14a15.93,15.93,0,0,1,19.59,0c2.28,1.68,4.42,3.56,6.83,5a14.34,14.34,0,0,0,5.24,1.85c3.31.46,6.68.54,10,.75a2.61,2.61,0,0,0,1.31-.2C238.18,173.06,241.23,171.28,244.53,169.36Zm-126.64-24.7a20.87,20.87,0,1,0,21-20.78A20.86,20.86,0,0,0,117.89,144.66Zm126.28.07A20.86,20.86,0,1,0,265,123.92,20.88,20.88,0,0,0,244.17,144.73ZM167.72,270.54l-10.54,22.64,10.2-1.71c2.8-.47,3.84,0,5.32,2.53,1.65,2.81,3.28,5.63,5.13,8.79,2.78-6,5.38-11.56,8.06-17.31a16.74,16.74,0,0,1-14.14-8.79C170.56,274.67,169.18,272.76,167.72,270.54Zm78.82,22.6-10.43-22.39c-2.5,3.51-4.6,6.93-7.19,9.95-2.74,3.19-6.62,4.49-11,4.82l8,17.23c1.91-3.27,3.6-6.2,5.32-9.11,1.26-2.12,2.49-2.64,4.93-2.23Z"/><path class="cls-2" d="M166.2,224.73a35.75,35.75,0,1,1,71.49,0c0,20-16.06,35.82-36.26,35.8C182,260.48,166.2,244.4,166.2,224.73Zm7.75-.22a27.89,27.89,0,0,0,28,28.16c15.08.1,27.81-12.54,27.9-27.27a28.09,28.09,0,0,0-27.9-28.67C186.81,196.56,174,209.26,174,224.51Z"/><path class="cls-2" d="M211.84,247a29,29,0,0,1-3.67-1.67c-1.82-1.17-3.47-2.6-5.29-3.76a2.27,2.27,0,0,0-2,0c-1.82,1.16-3.51,2.52-5.29,3.77a6.32,6.32,0,0,1-9.89-7.08c.63-2.07,1.27-4.14,2-6.16a1.52,1.52,0,0,0-.68-2.12c-1.74-1.18-3.42-2.45-5.11-3.7-2.59-1.92-3.49-4.41-2.62-7.21s3.16-4.43,6.44-4.48c2,0,4.08-.08,6.11,0a1.77,1.77,0,0,0,2.05-1.54c.58-2,1.24-4,1.93-6a6.32,6.32,0,0,1,12.07,0q1.06,3.08,2,6.18a1.59,1.59,0,0,0,1.81,1.34c2.1-.07,4.21,0,6.31,0a6.48,6.48,0,0,1,6.41,4.31c.94,2.84,0,5.43-2.61,7.41-1.53,1.14-3,2.33-4.65,3.32-1.33.82-1.49,1.7-1,3.08a54.16,54.16,0,0,1,2,6.18C219.26,243.08,216.27,246.76,211.84,247Zm1.32-24.32c-6.64.91-10.1-2-11-8-1.34,2.28-2.15,5-4,6.4s-4.83,1.41-7.41,2.06c5.75,2.52,6.75,7.05,4.07,13,4.8-4.87,9.36-4.49,14.13-.07C206.05,230.16,207.37,225.85,213.16,222.72Z"/></svg>