<?xml version="1.0" encoding="utf-8"?>
<!-- Generator: Adobe Illustrator 23.0.3, SVG Export Plug-In . SVG Version: 6.00 Build 0)  -->
<svg version="1.1" id="Capa_1" xmlns="http://www.w3.org/2000/svg" xmlns:xlink="http://www.w3.org/1999/xlink" x="0px" y="0px"
	 viewBox="0 0 400 400" style="enable-background:new 0 0 400 400;" xml:space="preserve">
<style type="text/css">
	.st0{fill:#D19008;}
	.st1{fill:#FFFFFF;}
	.st2{fill:url(#SVGID_1_);}
	.st3{fill:none;}
	.st4{fill:#002571;}
	.st5{fill:#747270;}
	.st6{fill-rule:evenodd;clip-rule:evenodd;fill:#D19008;}
</style>
<g>
	<ellipse transform="matrix(0.7071 -0.7071 0.7071 0.7071 -82.8428 199.9999)" class="st4" cx="200" cy="200" rx="150" ry="150"/>
</g>
<g>
	<path class="st6" d="M289.9,144.7v-0.6l-0.1-0.3l-0.1-0.2v-0.3l-0.1-0.3l-0.1-0.2l-0.1-0.3v-0.2l-0.1-0.3l-0.1-0.3l-0.2-0.2
		l-0.1-0.2v-0.1l-0.1-0.2l-0.1-0.2l-0.2-0.3l-0.1-0.2l-0.1-0.2l-0.2-0.3l-0.1-0.2l-0.4-0.4l-0.1-0.2l-0.8-0.8l-0.1-0.2h-0.1
		l-0.1-0.2l-0.2-0.2l-0.3-0.1l-0.4-0.4l-0.2-0.1l-0.2-0.2l-0.2-0.1l-0.3-0.2l-0.2-0.1l-0.2-0.2l-0.3-0.1l-0.2-0.1l-0.3-0.1l-0.2-0.1
		l-0.3-0.1l-0.2-0.1l-0.3-0.1l-0.3-0.1l-0.2-0.1l-0.3-0.1h-0.3l-0.2-0.1h-0.3l-0.3-0.1h-0.3l-0.2-0.1h-23.6v-17.2
		c0-1.9-0.8-3.6-2-4.8c-1.3-1.2-3-2-4.9-2c-3.8,0-6.9,3-6.9,6.8v17.2h-86.2v-17.2c0-1.9-0.8-3.6-2-4.8c-1.3-1.2-3-2-4.9-2
		c-3.8,0-6.8,3-6.8,6.8v17.2h-23.6l-0.3,0.1H119l-0.3,0.1h-0.2l-0.3,0.1H118l-0.2,0.1l-0.3,0.1l-0.3,0.1l-0.2,0.1l-0.3,0.1l-0.2,0.1
		l-0.3,0.1l-0.2,0.1l-0.3,0.1l-0.2,0.1l-0.3,0.2l-0.2,0.1l-0.2,0.2l-0.2,0.1l-0.3,0.2l-0.2,0.1l-0.4,0.4l-0.2,0.1l-0.2,0.2l-0.2,0.2
		l-0.2,0.2l-0.6,0.6l-0.1,0.2l-0.2,0.2l-0.2,0.2l-0.1,0.2l-0.2,0.2l-0.1,0.3l-0.2,0.2l-0.1,0.2l-0.1,0.3l-0.2,0.2l-0.1,0.2v0.1
		l-0.1,0.2l-0.1,0.2l-0.1,0.3l-0.1,0.3l-0.1,0.2l-0.1,0.3l-0.1,0.2v0.3l-0.1,0.3l-0.1,0.2v0.3l-0.1,0.3v0.6l-0.1,0.2v132.7
		c0,5.9,4.7,10.6,10.6,10.6h158.8c5.9,0,10.6-4.7,10.6-10.6V145L289.9,144.7z M278.5,264c0,6.1-4.9,11-11,11h-135
		c-6.1,0-11-4.9-11-11v-98c0-6.1,4.9-11,11-11h135c6.1,0,11,4.9,11,11V264z"/>
	<rect x="140.7" y="180.7" class="st6" width="25" height="23.8"/>
	<rect x="234.4" y="219.5" class="st6" width="25" height="23.8"/>
	<rect x="187.5" y="219.5" class="st6" width="25" height="23.8"/>
	<rect x="140.7" y="219.5" class="st6" width="25" height="23.8"/>
	<rect x="234.4" y="180.7" class="st6" width="25" height="23.8"/>
	<rect x="187.5" y="180.7" class="st6" width="25" height="23.8"/>
</g>
</svg>
