<svg id="Capa_1" data-name="Capa 1" xmlns="http://www.w3.org/2000/svg" viewBox="0 0 400 400"><defs><style>.cls-1{fill:#002571;}.cls-2{fill:#d19008;}</style></defs><title>FEDEPAL Iconos</title><circle class="cls-1" cx="200" cy="200" r="150" transform="translate(-82.84 200) rotate(-45)"/><path class="cls-2" d="M118.61,148.14c-5.21-9-12.39-12.18-20.1-8.93-6.74,2.84-10.69,10.28-8.35,17.17A20.66,20.66,0,0,0,96,164.87c3.92,3.4,8.91,3.29,14,1.65-.41,8.27,3.86,12.82,10.81,15.67,5.12,2.1,10,4.68,15.09,7,3.65,1.66,5.53,1,7.21-2.6q6.1-12.93,12.12-25.9c1.63-3.53,1-5.27-2.56-6.94-4.81-2.28-9.75-4.3-14.45-6.78C131.37,143.31,124.82,142.54,118.61,148.14Z"/><path class="cls-2" d="M199.56,252A50.53,50.53,0,1,1,200.14,151c28.88.2,50.77,24.28,50.23,52C249.85,229.73,227.14,252,199.56,252ZM168.1,173.71c4.09,3.57,7,7.84,7.27,13.13.17,3.8-.69,7.68-1.39,11.46-.95,5.15,2.39,9.7,7.58,9.87,1.66.06,3.33-.08,5-.17,9.3-.51,16.62,5.46,17.65,14.41,1,8.37-5,16-13.69,17.62-1.72.31-3.5.39-5.87.65,25.91,10,52-8,55.51-29.38-3.87-2.17-6.07-5.54-7.22-9.85-1-3.81-3.35-4.86-7.05-3.55-4.29,1.52-8.53,3.16-12.82,4.65a12.57,12.57,0,0,1-16-6.43c-4.19-8.35-3.46-15.91,3.46-21.22a5.44,5.44,0,0,0,1.85-6.55c-.64-1.92-11.38-8.26-13.29-7.75A40.7,40.7,0,0,0,168.1,173.71Zm-4.73,7.08a11.92,11.92,0,0,0-.78,1c-8.6,14.55-5.71,36.79,6.35,48.42a4.47,4.47,0,0,0,2.5,1.37c6,.18,12,.51,17.9.15,4.16-.25,7-4.32,6.63-8.18a7.94,7.94,0,0,0-7.87-7.12c-2.22,0-4.43.12-6.65.12-7.64,0-14.19-4.94-15.35-12.52-.6-3.88.25-8.08,1-12.05A11.48,11.48,0,0,0,163.37,180.79Zm77.92,17.51c.3-17.25-16.63-36.52-33.1-37.46.9,2.36,2.22,4.74,2.71,7.27,1.11,5.79-1.25,10.3-5.69,14-3.05,2.56-3,6.25-.34,10.54,2,3.16,4.58,2.39,7.31,1.37,4-1.52,8.09-3.06,12.18-4.46A12.46,12.46,0,0,1,239,194.44C239.81,195.6,240.44,196.86,241.29,198.3Z"/><path class="cls-2" d="M280.81,148.06c4.86-10.13,13.27-11.31,19.63-9.08,7.1,2.49,10.81,9.86,9.13,17.53-1.75,8-8.15,11.58-19.68,10.88-.1.73-.23,1.47-.32,2.22-.68,5.22-3.23,9.16-8,11.45q-9,4.29-18.08,8.42c-3.77,1.71-5.63,1-7.42-2.89Q250,173.8,244.13,161c-1.67-3.61-1-5.48,2.63-7.22,5.19-2.49,10.49-4.78,15.62-7.39C268.82,143.08,274.89,143,280.81,148.06Zm-27.71,12c3.24,6.92,6.32,13.49,9.51,20.32,5.44-2.58,10.69-4.89,15.76-7.54a4.72,4.72,0,0,0,2.25-6.5c-1.59-3.65-3.21-7.29-5-10.82-1.48-2.88-4.08-3.85-7-2.58C263.53,155.15,258.57,157.55,253.1,160.08Zm48.24-7.1a6.23,6.23,0,1,0-12.46-.25A6.06,6.06,0,0,0,295,159.1,6,6,0,0,0,301.34,153Z"/><path class="cls-2" d="M289.75,236c10.78-1.5,17.75,2.22,19.8,10.34a15,15,0,0,1-9.08,17.85c-7.69,2.9-15-.45-19.54-9.12-6.57,6-13.39,4.55-20.42.79-4.49-2.4-9.23-4.33-13.81-6.55-3.45-1.67-4.16-3.55-2.58-7q6-13.14,12.26-26.21c1.61-3.39,3.55-4.05,7-2.47,6.16,2.8,12.3,5.63,18.38,8.57C287.37,224.92,289.61,229.75,289.75,236Zm-36.64,7c5.74,2.59,11,5.16,16.4,7.32,2.76,1.1,5-.49,6.23-3,1.74-3.46,3.28-7,4.93-10.53a4.56,4.56,0,0,0-1.9-6.34c-5.12-2.8-10.49-5.13-16.11-7.82C259.45,229.5,256.42,236,253.11,243Zm48.31,7a6.2,6.2,0,0,0-6.38-6.17,6.33,6.33,0,0,0-6.14,6.46,6.26,6.26,0,0,0,12.52-.29Z"/><path class="cls-2" d="M110,236c-.48-8.66,4.77-12.94,12-15.87,4.62-1.86,9-4.19,13.57-6.29,4-1.87,5.8-1.27,7.67,2.69q6,12.78,12,25.6c1.64,3.56,1,5.33-2.43,7-6.1,2.92-12.21,5.81-18.37,8.59-5.81,2.62-11,1.29-15.69-2.79C112.6,264.18,106,267,98.35,263.68A14.77,14.77,0,0,1,90,246.34C92.23,238.08,98.13,235,110,236Zm26.93-13.51c-5.52,2.59-10.58,4.85-15.52,7.34a5,5,0,0,0-2.59,7c1.55,3.67,3.19,7.32,5,10.85,1.23,2.36,3.48,3.81,6.1,2.75,5.5-2.23,10.85-4.85,16.53-7.43C143.2,236,140.14,229.44,136.91,222.51Zm-32.5,21.24a6.69,6.69,0,0,0-6.68,6.41,6.89,6.89,0,0,0,6.65,6.53,6.66,6.66,0,0,0,6.4-6.34A6.42,6.42,0,0,0,104.41,243.75Z"/><path class="cls-2" d="M189.4,107.2c-6-8.41-5.79-16.25.24-21.84a14.92,14.92,0,0,1,19.51-.58c6.56,5.39,7,13,1.08,22.46,7.64,3.32,9.67,9.62,9.31,17.35-.24,5.21,0,10.43-.06,15.65,0,4.15-1.52,5.57-5.68,5.58q-14.15,0-28.3,0c-3.95,0-5.4-1.47-5.43-5.42,0-5.88.15-11.77,0-17.65C179.77,115.53,182.52,110.28,189.4,107.2Zm-1,30.16h22.41c0-6.11.18-12.06-.08-18-.12-2.74-2.14-4.27-5-4.3-3.87,0-7.75-.08-11.62,0-3.32.06-5.52,1.9-5.66,5.24C188.21,125.92,188.37,131.54,188.37,137.36Zm17.69-41A6.36,6.36,0,0,0,200,89.85a6.47,6.47,0,0,0-6.64,6.37,6.59,6.59,0,0,0,6.32,6.44A6.49,6.49,0,0,0,206.06,96.39Z"/><path class="cls-2" d="M118.61,148.14c6.21-5.6,12.76-4.83,19.63-1.2,4.7,2.48,9.64,4.5,14.45,6.78,3.52,1.67,4.19,3.41,2.56,6.94q-6,13-12.12,25.9c-1.68,3.57-3.56,4.26-7.21,2.6-5-2.29-10-4.87-15.09-7-7-2.85-11.22-7.4-10.81-15.67-5.08,1.64-10.07,1.75-14-1.65a20.66,20.66,0,0,1-5.87-8.49c-2.34-6.89,1.61-14.33,8.35-17.17C106.22,136,113.4,139.1,118.61,148.14ZM146.4,160c-5.49-2.58-10.54-5.09-15.71-7.31-2.82-1.22-5.52-.06-7,2.79-1.77,3.45-3.36,7-4.93,10.53-1.13,2.55-.67,5.2,1.67,6.48,5.28,2.88,10.82,5.28,16.41,7.95Zm-41.89-13.59a6.48,6.48,0,0,0-6.73,6.33,6.83,6.83,0,0,0,6.28,6.59,6.71,6.71,0,0,0,6.69-6.47A6.42,6.42,0,0,0,104.51,146.45Z"/><path class="cls-2" d="M189.4,295.81c-7.58-3.18-9.79-9.26-9.4-17,.28-5.42,0-10.88.07-16.32,0-3.82,1.39-5.15,5.24-5.18q14.16-.08,28.31-.09c4.57,0,5.83,1.32,5.86,6,0,5.11-.18,10.23.06,15.32.36,7.78-1.78,14.05-9.56,17.23,6,8,5.93,16.09,0,21.72a14.91,14.91,0,0,1-19.76.62C183.72,312.78,183.38,304.81,189.4,295.81ZM210.86,266H188.34c0,5.61-.12,10.93,0,16.24.11,3.79,2.4,5.88,6.17,5.95,3.55.06,7.1.08,10.65,0,3.16-.09,5.47-1.64,5.6-4.94C211,277.55,210.86,271.91,210.86,266ZM206.06,307a6.36,6.36,0,0,0-6-6.6,6.48,6.48,0,0,0-6.71,6.31,6.57,6.57,0,0,0,6.26,6.5A6.47,6.47,0,0,0,206.06,307Z"/><path class="cls-1" d="M146.4,160l-9.54,20.44c-5.59-2.67-11.13-5.07-16.41-7.95-2.34-1.28-2.8-3.93-1.67-6.48,1.57-3.54,3.16-7.08,4.93-10.53,1.46-2.85,4.16-4,7-2.79C135.86,155,140.91,157.46,146.4,160Z"/><path class="cls-1" d="M104.51,146.45a6.42,6.42,0,0,1,6.24,6.45,6.71,6.71,0,0,1-6.69,6.47,6.83,6.83,0,0,1-6.28-6.59A6.48,6.48,0,0,1,104.51,146.45Z"/></svg>