<svg id="Capa_1" data-name="Capa 1" xmlns="http://www.w3.org/2000/svg" viewBox="0 0 400 400"><defs><style>.cls-1{fill:#002571;}.cls-2{fill:#d19008;}</style></defs><title>FEDEPAL Iconos</title><circle class="cls-1" cx="200" cy="200" r="150" transform="translate(-82.84 200) rotate(-45)"/><path class="cls-2" d="M101.75,219.61c-5.48-1.36-10.06-7.33-10.14-13.19-.07-5,0-10,.06-15.07,0-7.34.09-14.68,0-22a13.5,13.5,0,0,1,5.82-11.54,21.84,21.84,0,0,1,13.33-4.33c21.75,0,43.49,0,65.24-.09a6.49,6.49,0,0,0,3.55-1.22c4.71-3.52,9.29-7.22,14-10.81a5.91,5.91,0,0,1,6.87-.54c2.19,1.22,3.54,3.24,3.13,5.71a8,8,0,0,1-2.33,4.56c-5.64,4.69-11.45,9.17-17.31,13.58a7,7,0,0,1-3.85,1.18c-6.68.11-13.35,0-20,.1a5.12,5.12,0,0,0-2.65,1.21,11.74,11.74,0,0,0-1.79,2.1c-2,2.41-4.63,4.56-5.63,7.31s-.27,6-.27,9.05q0,42.72-.09,85.46c0,4-.16,8.06-.16,12.09,0,1.2-.42,1.63-1.61,1.62-5.09,0-10.18-.07-15.27,0-1.79,0-1.62-1-1.62-2.21v-58.3c0-1.7-.89-3-2.48-3a5.09,5.09,0,0,0-3,1.59c-.43.41-.32,1.49-.32,2.27q0,28.35,0,56.71c0,3.08.45,2.94-3,2.94-4,0-7.93-.1-11.89,0-2,.07-2.58-.5-2.58-2.54.08-22.27,0-44.55,0-66.83V173.58a18.69,18.69,0,0,0,0-2A2.67,2.67,0,0,0,104.9,169a2.82,2.82,0,0,0-3.1,2.45,8.12,8.12,0,0,0,0,1.78v46.39Z"/><path class="cls-2" d="M166.88,194.46c-.6-1.84-1.65-3.65-1.73-5.51-.23-5.54-.08-11.09-.08-17,.84,0,1.59,0,2.35,0,4.62-.07,9.27.11,13.86-.31a13.26,13.26,0,0,0,6.32-2.42c5.91-4.33,11.64-8.93,17.36-13.51A12,12,0,0,0,208.72,142a12.08,12.08,0,0,0-19-5.06c-4.05,3.2-8.08,6.41-12.21,9.49a6.66,6.66,0,0,1-3.39,1.16c-2.89.16-5.8.05-9,.05,0-.87-.1-1.62-.1-2.38q0-13.18,0-26.37c0-7.27,4.86-12.24,12.13-12.25q27.56-.06,55.13,0,17.44,0,34.9,0c7.82,0,12.67,4.89,12.67,12.76,0,22.47-.1,44.94.07,67.41a12.41,12.41,0,0,1-12.55,12.59c-16.06-.29-32.13-.1-48.19-.11h-2.53c-.45-7.28-3.13-13.42-8.55-18.21a23.7,23.7,0,0,0-13.36-5.94,24.22,24.22,0,0,0-17.24,4.48,25.39,25.39,0,0,0-9.83,14.86Zm92.95-18.09a3.63,3.63,0,0,0,.73-.44c1.46-1.44,2.94-2.86,4.32-4.37a1.44,1.44,0,0,0,.2-1.36c-2-2.77-1.31-5.37.3-8,.37-.6.39-1.43.78-2a5.27,5.27,0,0,1,1.82-2c3.37-1.52,3.4-1.46,3.4-5.23a5.91,5.91,0,0,1,0-1.19c.39-2.07-.53-3.09-2.49-3.7a4.94,4.94,0,0,1-2.62-2,34.08,34.08,0,0,1-2.29-5.45c-.22-.61-.41-1.55-.11-2,2.07-2.9,1.1-5-1.48-6.88a4.76,4.76,0,0,1-1.12-1.12,1.83,1.83,0,0,0-2.85-.51,4.8,4.8,0,0,1-5.82,0c-1.05-.73-2.46-.92-3.64-1.5-.65-.32-1.55-.86-1.64-1.42-.59-3.58-2.88-4.24-6-3.77a3.59,3.59,0,0,1-1.18,0,2.14,2.14,0,0,0-2.82,1.93,4.46,4.46,0,0,1-3.87,3.84c-1.32.27-2.5,1.15-3.8,1.63-.61.23-1.55.45-2,.15-3.06-2.21-5.25-1-7.17,1.61a3.72,3.72,0,0,1-.84.84,2,2,0,0,0-.6,3,4.74,4.74,0,0,1,0,5.83c-.73,1.05-.92,2.46-1.5,3.63-.31.64-.85,1.54-1.41,1.63-3.5.61-4.34,2.78-3.82,5.93.11.71-.11,1.48,0,2.17.13.54.53,1.36.92,1.43,3.24.59,4.69,2.72,5.37,5.7.2.87.87,1.63,1.15,2.5a2.74,2.74,0,0,1,.08,2c-2,2.9-1.07,5,1.52,6.89.63.46,1.07,1.19,1.71,1.63.4.27,1.2.48,1.5.27,2.71-1.92,5.24-1.33,7.82.28.71.44,1.66.48,2.4.88s1.52.86,1.64,1.43c.66,3.34,2.67,4.33,5.8,3.73a4.93,4.93,0,0,1,1.58,0,2,2,0,0,0,2.53-1.74c.48-2.14,1.57-3.59,4-4,1.32-.22,2.5-1.18,3.8-1.63a3.66,3.66,0,0,1,2.17-.09A29.87,29.87,0,0,1,259.83,176.37Z"/><path class="cls-2" d="M203.23,224.7h-21c-.89,0-1.67.05-1.73-1.26a31.79,31.79,0,0,0-4.83-14.68A18.39,18.39,0,0,1,180,185a18.86,18.86,0,0,1,23.93.1,18.29,18.29,0,0,1,4.34,23.41A33.33,33.33,0,0,0,203.23,224.7Z"/><path class="cls-2" d="M145,126c0,6.51-1.75,12.39-6.47,17.09-5.92,5.89-14.65,5.76-20.19-.51-6.13-6.94-7.53-15.14-5.06-23.89,1.67-5.89,6.91-9.69,13.18-10a26.9,26.9,0,0,1,7.45.55c6.39,1.52,10.54,6.7,11.07,13.37C145.05,123.7,145,124.83,145,126Z"/><path class="cls-2" d="M264.52,289.85c-5.09,0-10.18,0-15.27,0-3,0-3.77-1.09-2.85-4a19.17,19.17,0,0,1,36.69.37c.74,2.56,0,3.62-2.71,3.64-5.28,0-10.57,0-15.86,0Z"/><path class="cls-2" d="M224.1,289.8c-5.14,0-10.29,0-15.43,0-2.86,0-3.55-1-2.77-3.69a19.16,19.16,0,0,1,36.87.64c.49,2-.36,3.06-2.64,3.08-5.34,0-10.68,0-16,0Z"/><path class="cls-2" d="M183.77,289.73c-5.28,0-10.56,0-15.84,0-2.48,0-3.22-1-2.55-3.35a19.14,19.14,0,0,1,36.63-.59c1,3,.2,4-3,4H183.77Z"/><path class="cls-2" d="M264.66,269a9.82,9.82,0,0,1,.08-19.63,9.82,9.82,0,1,1-.08,19.63Z"/><path class="cls-2" d="M224.11,269a9.8,9.8,0,1,1,9.9-9.71A9.71,9.71,0,0,1,224.11,269Z"/><path class="cls-2" d="M193.48,259.12a9.71,9.71,0,1,1-9.87-9.7A9.67,9.67,0,0,1,193.48,259.12Z"/><path class="cls-2" d="M180.75,230.77h22.36c-.17,2.45-1.12,3.57-3.41,3.6q-7.81.13-15.63,0C181.84,234.32,180.93,233.25,180.75,230.77Z"/><path class="cls-2" d="M196.88,240.39c-.58,2.1-2,2.47-3.78,2.47-5,0-5.25-.09-6.07-2.47Z"/><path class="cls-2" d="M241.89,167.1a14.19,14.19,0,1,0,.18-28.37,14.19,14.19,0,1,0-.18,28.37Z"/><path class="cls-2" d="M241.89,167.1A14.19,14.19,0,1,1,256.22,153,14.1,14.1,0,0,1,241.89,167.1Z"/></svg>