<svg id="Capa_1" data-name="Capa 1" xmlns="http://www.w3.org/2000/svg" viewBox="0 0 800 800"><defs><style>.cls-1{fill:#2e307a;}</style></defs><title>iconos fedepal 2</title><path class="cls-1" d="M399.93,50C207,50,50,207,50,400.07S207,750,399.93,750,750,593.05,750,400.07,593,50,399.93,50ZM665.3,569.41c-56,87.37-154.07,145.41-265.37,145.41-112.84,0-212-59.72-267.55-149.21l75.28-43.48-14.07-24.34-75,43.34a312.78,312.78,0,0,1-33.2-129.66h85.05V383.33H85.6a312.79,312.79,0,0,1,35.1-128.4L193.59,297l14.07-24.34-72.89-42.07a317.46,317.46,0,0,1,93.71-94.48l42.35,73.38,24.35-14.07-42.5-73.59A311.55,311.55,0,0,1,381.5,85.74v86.53h28.14v-87a312.26,312.26,0,0,1,130.85,33L496,195.42l24.34,14.07L565.05,132a317.6,317.6,0,0,1,97.78,94.83l-79.35,45.8L597.55,297l79.71-46A313.22,313.22,0,0,1,714.4,383.33H620.69v28.14h93.92a312.39,312.39,0,0,1-35.24,133.6l-81.82-47.28-14.07,24.34Z"/><path class="cls-1" d="M645,466.39l-232.14-7.25a26.94,26.94,0,1,1,6.4-30.36Z"/></svg>