<svg id="Capa_1" data-name="Capa 1" xmlns="http://www.w3.org/2000/svg" viewBox="0 0 800 400"><defs><style>.cls-1{fill:#707070;}.cls-2{fill:#2e307a;}.cls-3{fill:#e68d24;}</style></defs><title>Logos fedepal</title><path class="cls-1" d="M289.68,315.8h-2.34v-23h13.89v2.15H289.68v7.84h10.74v2.15H289.68Z"/><path class="cls-1" d="M306.15,308.77a6.49,6.49,0,0,0,.55,2.15,5.83,5.83,0,0,0,1.21,1.74,5.49,5.49,0,0,0,1.72,1.16,5.26,5.26,0,0,0,2.11.42,5.44,5.44,0,0,0,3-.8,5.79,5.79,0,0,0,1.9-1.84l1.66,1.37a8.21,8.21,0,0,1-3,2.47,8.38,8.38,0,0,1-3.53.75,8.17,8.17,0,0,1-3.14-.6,7.26,7.26,0,0,1-2.48-1.68,7.8,7.8,0,0,1-1.65-2.53,8.35,8.35,0,0,1-.6-3.19,8.54,8.54,0,0,1,.59-3.19,7.78,7.78,0,0,1,1.62-2.54,7.63,7.63,0,0,1,2.44-1.67,7.92,7.92,0,0,1,6.12,0,6.78,6.78,0,0,1,2.29,1.64,7.18,7.18,0,0,1,1.42,2.41,8.7,8.7,0,0,1,.49,2.95v1ZM316.5,307a4.86,4.86,0,0,0-1.31-3.53,4.81,4.81,0,0,0-3.64-1.35,5.24,5.24,0,0,0-2,.4,5.81,5.81,0,0,0-1.71,1.09,5.91,5.91,0,0,0-1.17,1.56,4.11,4.11,0,0,0-.44,1.83Z"/><path class="cls-1" d="M337.94,315.8h-2.15v-2.54h-.07a5.63,5.63,0,0,1-1.23,1.34,7.8,7.8,0,0,1-1.5.91,7.2,7.2,0,0,1-1.61.52,8.07,8.07,0,0,1-1.58.16,8.65,8.65,0,0,1-3.27-.6,7.63,7.63,0,0,1-4.23-4.21,8.78,8.78,0,0,1,0-6.38,7.54,7.54,0,0,1,4.23-4.21,8.46,8.46,0,0,1,3.27-.61,8.11,8.11,0,0,1,1.58.17,7.2,7.2,0,0,1,1.61.52,7.8,7.8,0,0,1,1.5.91,5.58,5.58,0,0,1,1.23,1.33h.07V291.2h2.15ZM324,308.19a6.82,6.82,0,0,0,.41,2.37,5.78,5.78,0,0,0,1.15,1.92,5.63,5.63,0,0,0,1.81,1.29,5.89,5.89,0,0,0,2.39.47,6.3,6.3,0,0,0,2.43-.47,6.16,6.16,0,0,0,1.93-1.29,5.75,5.75,0,0,0,1.27-1.92,6.36,6.36,0,0,0,0-4.75,5.8,5.8,0,0,0-3.2-3.2,6.12,6.12,0,0,0-2.43-.47,5.73,5.73,0,0,0-2.39.47,5.46,5.46,0,0,0-1.81,1.28,6,6,0,0,0-1.15,1.92A6.88,6.88,0,0,0,324,308.19Z"/><path class="cls-1" d="M344.12,308.77a6.49,6.49,0,0,0,.55,2.15,5.83,5.83,0,0,0,1.21,1.74,5.49,5.49,0,0,0,1.72,1.16,5.3,5.3,0,0,0,2.11.42,5.44,5.44,0,0,0,3-.8,5.92,5.92,0,0,0,1.91-1.84l1.65,1.37a8.26,8.26,0,0,1-3,2.47,8.45,8.45,0,0,1-3.54.75,8.17,8.17,0,0,1-3.14-.6,7.26,7.26,0,0,1-2.48-1.68,7.8,7.8,0,0,1-1.65-2.53,8.35,8.35,0,0,1-.6-3.19,8.54,8.54,0,0,1,.59-3.19,7.78,7.78,0,0,1,1.62-2.54,7.63,7.63,0,0,1,2.44-1.67,7.92,7.92,0,0,1,6.12,0,6.78,6.78,0,0,1,2.29,1.64,7.18,7.18,0,0,1,1.42,2.41,8.7,8.7,0,0,1,.49,2.95v1ZM354.47,307a4.86,4.86,0,0,0-1.31-3.53,4.81,4.81,0,0,0-3.64-1.35,5.24,5.24,0,0,0-2,.4,5.81,5.81,0,0,0-1.71,1.09,5.91,5.91,0,0,0-1.17,1.56,4.11,4.11,0,0,0-.44,1.83Z"/><path class="cls-1" d="M360.94,305.32c0-.67,0-1.35-.05-2.05s-.06-1.59-.08-2.7h2.12v2.84H363a4.62,4.62,0,0,1,.65-1.19,5,5,0,0,1,1-1,4.88,4.88,0,0,1,1.4-.73,5.57,5.57,0,0,1,1.8-.28,5.88,5.88,0,0,1,1.6.2l-.43,2.11a3.81,3.81,0,0,0-1.23-.16,4.48,4.48,0,0,0-2.12.47,4.68,4.68,0,0,0-1.46,1.21,5.06,5.06,0,0,0-.87,1.57,5.4,5.4,0,0,0-.27,1.63v8.59h-2.15Z"/><path class="cls-1" d="M381.28,306.46v-.39c0-2.62-1.31-3.93-3.91-3.93a6.68,6.68,0,0,0-4.65,1.79l-1.3-1.53q2.15-2.22,6.44-2.22a6.88,6.88,0,0,1,2.13.33,5,5,0,0,1,1.77,1,5.1,5.1,0,0,1,1.21,1.68,5.84,5.84,0,0,1,.45,2.4v6.8c0,.59,0,1.2.08,1.84s.12,1.17.18,1.58H381.6q-.09-.56-.15-1.2c0-.44,0-.86,0-1.27h-.07a5.75,5.75,0,0,1-2.23,2.19,6.66,6.66,0,0,1-3.14.67,7.06,7.06,0,0,1-2-.27,5.12,5.12,0,0,1-1.68-.85,4.54,4.54,0,0,1-1.17-1.4,4.11,4.11,0,0,1-.44-1.94,4.19,4.19,0,0,1,1-2.91,6,6,0,0,1,2.41-1.58,12.39,12.39,0,0,1,3.09-.65c1.1-.08,2.1-.13,3-.13Zm-1.11,1.76c-.54,0-1.22,0-2,.08a12.67,12.67,0,0,0-2.35.39,5.42,5.42,0,0,0-1.92,1,2.19,2.19,0,0,0-.79,1.79,2.52,2.52,0,0,0,.31,1.29,2.58,2.58,0,0,0,.83.88,3.46,3.46,0,0,0,1.15.48,5.55,5.55,0,0,0,1.29.15,4.9,4.9,0,0,0,2-.39,4.19,4.19,0,0,0,1.45-1.06,4.24,4.24,0,0,0,.86-1.56,6.56,6.56,0,0,0,.28-1.9v-1.11Z"/><path class="cls-1" d="M399.5,304.15a4.66,4.66,0,0,0-1.55-1.43,4.35,4.35,0,0,0-2.26-.58,5.4,5.4,0,0,0-2.39.42,5.2,5.2,0,0,0-1.81,1.27,5.49,5.49,0,0,0-1.14,1.93,7.73,7.73,0,0,0,0,4.85,5.44,5.44,0,0,0,1.14,1.94,5.33,5.33,0,0,0,1.81,1.27,5.7,5.7,0,0,0,2.39.42,4.35,4.35,0,0,0,2.26-.59,4.56,4.56,0,0,0,1.55-1.43l1.75,1.34a7.12,7.12,0,0,1-2.57,2,7.53,7.53,0,0,1-3,.67,8.55,8.55,0,0,1-3.35-.57,7.52,7.52,0,0,1-2.56-1.67,7.28,7.28,0,0,1-1.61-2.56,9,9,0,0,1-.55-3.2,9.1,9.1,0,0,1,.55-3.21,7.24,7.24,0,0,1,1.61-2.55,7.4,7.4,0,0,1,2.56-1.68,8.55,8.55,0,0,1,3.35-.57,7.89,7.89,0,0,1,3,.67,7.15,7.15,0,0,1,2.57,2Z"/><path class="cls-1" d="M407.21,294.72a1.43,1.43,0,0,1-.49,1.12,1.59,1.59,0,0,1-1.07.44,1.61,1.61,0,0,1-1.08-.44,1.46,1.46,0,0,1-.49-1.12,1.48,1.48,0,0,1,.49-1.13,1.6,1.6,0,0,1,1.08-.43,1.57,1.57,0,0,1,1.07.43A1.45,1.45,0,0,1,407.21,294.72Zm-.49,21.08h-2.15V300.57h2.15Z"/><path class="cls-1" d="M427.28,308.19a8.35,8.35,0,0,1-.6,3.19,7.57,7.57,0,0,1-1.68,2.53,7.46,7.46,0,0,1-2.55,1.68,9.13,9.13,0,0,1-6.51,0,7.65,7.65,0,0,1-2.55-1.68,7.57,7.57,0,0,1-1.68-2.53,8.78,8.78,0,0,1,0-6.38,7.61,7.61,0,0,1,1.68-2.54,7.78,7.78,0,0,1,2.55-1.67,9,9,0,0,1,6.51,0,7.54,7.54,0,0,1,4.23,4.21A8.35,8.35,0,0,1,427.28,308.19Zm-2.34,0a6.88,6.88,0,0,0-.41-2.38,5.81,5.81,0,0,0-1.15-1.92,5.36,5.36,0,0,0-1.81-1.28,6.31,6.31,0,0,0-4.78,0,5.18,5.18,0,0,0-1.79,1.28,6,6,0,0,0-1.14,1.92,7.08,7.08,0,0,0,0,4.75,5.76,5.76,0,0,0,1.14,1.92,5.34,5.34,0,0,0,1.79,1.29,6.31,6.31,0,0,0,4.78,0,5.53,5.53,0,0,0,1.81-1.29,5.62,5.62,0,0,0,1.15-1.92A6.82,6.82,0,0,0,424.94,308.19Zm-5.79-10.74h-1.92l3.25-4.69h3Z"/><path class="cls-1" d="M433.24,300.57c0,.42.07.82.08,1.22s0,.81,0,1.22h.07a4.86,4.86,0,0,1,.91-1.13,5.87,5.87,0,0,1,1.24-.9,7.26,7.26,0,0,1,1.44-.59,5.74,5.74,0,0,1,1.52-.21,5.58,5.58,0,0,1,4.33,1.55,6.36,6.36,0,0,1,1.39,4.41v9.66h-2.14v-8.43a7.16,7.16,0,0,0-.88-3.88,3.6,3.6,0,0,0-3.26-1.35,7.7,7.7,0,0,0-.91.13,3.9,3.9,0,0,0-1.58.71,5.29,5.29,0,0,0-1.48,1.76,6.78,6.78,0,0,0-.65,3.25v7.81h-2.14V303.93c0-.42,0-.94-.05-1.57s-.07-1.22-.12-1.79Z"/><path class="cls-1" d="M473.52,315.8h-2.15v-2.54h-.06a5.67,5.67,0,0,1-1.24,1.34,7.8,7.8,0,0,1-1.5.91A7,7,0,0,1,467,316a8.07,8.07,0,0,1-1.58.16,8.65,8.65,0,0,1-3.27-.6,7.65,7.65,0,0,1-2.55-1.68,7.57,7.57,0,0,1-1.68-2.53,8.78,8.78,0,0,1,0-6.38,7.61,7.61,0,0,1,1.68-2.54,7.78,7.78,0,0,1,2.55-1.67,8.46,8.46,0,0,1,3.27-.61,8.11,8.11,0,0,1,1.58.17,7,7,0,0,1,1.61.52,7.8,7.8,0,0,1,1.5.91,5.62,5.62,0,0,1,1.24,1.33h.06V291.2h2.15Zm-13.9-7.61a6.82,6.82,0,0,0,.41,2.37,5.53,5.53,0,0,0,3,3.21,5.89,5.89,0,0,0,2.39.47,6.3,6.3,0,0,0,2.43-.47,6.05,6.05,0,0,0,1.93-1.29,5.6,5.6,0,0,0,1.27-1.92,6.36,6.36,0,0,0,0-4.75,5.8,5.8,0,0,0-1.27-1.92,5.87,5.87,0,0,0-1.93-1.28,6.12,6.12,0,0,0-2.43-.47,5.73,5.73,0,0,0-2.39.47,5.42,5.42,0,0,0-1.8,1.28,5.84,5.84,0,0,0-1.16,1.92A6.88,6.88,0,0,0,459.62,308.19Z"/><path class="cls-1" d="M479.7,308.77a6.49,6.49,0,0,0,.55,2.15,5.83,5.83,0,0,0,1.21,1.74,5.61,5.61,0,0,0,1.72,1.16,5.31,5.31,0,0,0,2.12.42,5.4,5.4,0,0,0,3-.8,5.92,5.92,0,0,0,1.91-1.84l1.66,1.37a8.29,8.29,0,0,1-3,2.47,8.44,8.44,0,0,1-3.53.75,8.1,8.1,0,0,1-3.14-.6,7.21,7.21,0,0,1-2.49-1.68,8,8,0,0,1-1.65-2.53,8.35,8.35,0,0,1-.6-3.19A8.54,8.54,0,0,1,478,305a7.64,7.64,0,0,1,1.63-2.54,7.79,7.79,0,0,1,8.55-1.66,6.78,6.78,0,0,1,2.29,1.64,7,7,0,0,1,1.42,2.41,8.7,8.7,0,0,1,.49,2.95v1ZM490.05,307a4.57,4.57,0,0,0-4.95-4.88,5.24,5.24,0,0,0-2,.4,5.81,5.81,0,0,0-1.71,1.09,5.91,5.91,0,0,0-1.17,1.56,4.11,4.11,0,0,0-.44,1.83Z"/><path class="cls-1" d="M508.46,313.65h12.33v2.15H506.12v-23H520.4v2.15H508.46v7.84h11.16v2.15H508.46Z"/><path class="cls-1" d="M532.7,304.19a4,4,0,0,0-1.3-1.5,3.42,3.42,0,0,0-2-.55,4.82,4.82,0,0,0-1.12.13,3.35,3.35,0,0,0-1,.4,2.33,2.33,0,0,0-.73.7,1.82,1.82,0,0,0-.28,1A1.74,1.74,0,0,0,527,306a7.6,7.6,0,0,0,2.25.84l2.18.52a5.2,5.2,0,0,1,2.65,1.45,3.77,3.77,0,0,1,1,2.72,4.25,4.25,0,0,1-.5,2.13,4.44,4.44,0,0,1-1.33,1.46,5.68,5.68,0,0,1-1.91.83,8.85,8.85,0,0,1-2.18.26,7.94,7.94,0,0,1-3.27-.67,5.91,5.91,0,0,1-2.58-2.29l1.85-1.27a5,5,0,0,0,1.64,1.66,4.39,4.39,0,0,0,2.36.62,5.7,5.7,0,0,0,1.3-.15,3.74,3.74,0,0,0,1.16-.45,2.39,2.39,0,0,0,.81-.8,2,2,0,0,0,.31-1.14,1.77,1.77,0,0,0-.84-1.64,7.56,7.56,0,0,0-2.05-.8l-2.09-.49c-.26-.06-.61-.17-1.05-.32a4.67,4.67,0,0,1-1.3-.69,4,4,0,0,1-1.1-1.18,3.4,3.4,0,0,1-.45-1.81,4.34,4.34,0,0,1,.47-2,4.17,4.17,0,0,1,1.27-1.43,5.66,5.66,0,0,1,1.81-.83,8,8,0,0,1,2.08-.28,7.14,7.14,0,0,1,3,.62,4.35,4.35,0,0,1,2.11,2.12Z"/><path class="cls-1" d="M546.37,302.53H542v9a4.84,4.84,0,0,0,.16,1.38,2,2,0,0,0,.45.83,1.71,1.71,0,0,0,.7.41,3.64,3.64,0,0,0,.9.11,4.18,4.18,0,0,0,1.14-.16,4.88,4.88,0,0,0,1.07-.43l.1,2a6.88,6.88,0,0,1-2.9.55,5.28,5.28,0,0,1-1.28-.16,3.07,3.07,0,0,1-1.22-.62,3.35,3.35,0,0,1-.91-1.23,5,5,0,0,1-.36-2.06v-9.59h-3.22v-2h3.22v-4.29H542v4.29h4.39Z"/><path class="cls-1" d="M559.06,306.46v-.39q0-3.93-3.91-3.93a6.68,6.68,0,0,0-4.65,1.79l-1.3-1.53q2.14-2.22,6.44-2.22a6.88,6.88,0,0,1,2.13.33,4.91,4.91,0,0,1,1.78,1,5.08,5.08,0,0,1,1.2,1.68,5.84,5.84,0,0,1,.46,2.4v6.8c0,.59,0,1.2.08,1.84s.11,1.17.18,1.58h-2.09c-.06-.37-.11-.77-.14-1.2s0-.86,0-1.27h-.07a5.75,5.75,0,0,1-2.23,2.19,6.66,6.66,0,0,1-3.14.67,7.06,7.06,0,0,1-2-.27,5,5,0,0,1-1.67-.85,4.43,4.43,0,0,1-1.18-1.4,4.11,4.11,0,0,1-.43-1.94,4.19,4.19,0,0,1,1-2.91,6,6,0,0,1,2.4-1.58,12.37,12.37,0,0,1,3.1-.65c1.09-.08,2.09-.13,3-.13ZM558,308.22c-.54,0-1.22,0-2,.08a12.43,12.43,0,0,0-2.34.39,5.25,5.25,0,0,0-1.92,1,2.17,2.17,0,0,0-.8,1.79,2.52,2.52,0,0,0,.31,1.29,2.58,2.58,0,0,0,.83.88,3.46,3.46,0,0,0,1.15.48,5.61,5.61,0,0,0,1.29.15,4.87,4.87,0,0,0,2-.39,4.14,4.14,0,0,0,2.31-2.62,6.24,6.24,0,0,0,.28-1.9v-1.11Z"/><path class="cls-1" d="M566.18,291.2h2.15v11.91h.07a5.38,5.38,0,0,1,1.23-1.33,7.8,7.8,0,0,1,1.5-.91,7.2,7.2,0,0,1,1.61-.52,8.11,8.11,0,0,1,1.58-.17,8.46,8.46,0,0,1,3.27.61,7.54,7.54,0,0,1,4.23,4.21,8.78,8.78,0,0,1,0,6.38,7.63,7.63,0,0,1-4.23,4.21,8.65,8.65,0,0,1-3.27.6,8.07,8.07,0,0,1-1.58-.16,7.2,7.2,0,0,1-1.61-.52,7.8,7.8,0,0,1-1.5-.91,5.43,5.43,0,0,1-1.23-1.34h-.07v2.54h-2.15Zm13.9,17a6.88,6.88,0,0,0-.41-2.38,5.84,5.84,0,0,0-1.16-1.92,5.32,5.32,0,0,0-1.8-1.28,5.73,5.73,0,0,0-2.39-.47,6,6,0,0,0-2.44.47,5.82,5.82,0,0,0-3.19,3.2,6.36,6.36,0,0,0,0,4.75,5.75,5.75,0,0,0,1.27,1.92,6.12,6.12,0,0,0,1.92,1.29,6.21,6.21,0,0,0,2.44.47,5.89,5.89,0,0,0,2.39-.47,5.48,5.48,0,0,0,1.8-1.29,5.64,5.64,0,0,0,1.16-1.92A6.82,6.82,0,0,0,580.08,308.19Z"/><path class="cls-1" d="M588.7,315.8h-2.15V291.2h2.15Z"/><path class="cls-1" d="M595.37,308.77a6.49,6.49,0,0,0,.55,2.15,5.83,5.83,0,0,0,1.21,1.74,5.49,5.49,0,0,0,1.72,1.16,5.31,5.31,0,0,0,2.12.42,5.43,5.43,0,0,0,3-.8,5.92,5.92,0,0,0,1.91-1.84l1.66,1.37a7.93,7.93,0,0,1-6.54,3.22,8.1,8.1,0,0,1-3.14-.6,7.21,7.21,0,0,1-2.49-1.68,8,8,0,0,1-1.65-2.53,8.35,8.35,0,0,1-.6-3.19,8.54,8.54,0,0,1,.59-3.19,7.78,7.78,0,0,1,1.62-2.54,7.63,7.63,0,0,1,2.44-1.67,7.92,7.92,0,0,1,6.12,0,6.78,6.78,0,0,1,2.29,1.64,7,7,0,0,1,1.42,2.41,8.7,8.7,0,0,1,.49,2.95v1ZM605.72,307a4.57,4.57,0,0,0-5-4.88,5.24,5.24,0,0,0-2,.4,5.81,5.81,0,0,0-1.71,1.09,5.91,5.91,0,0,0-1.17,1.56,4.11,4.11,0,0,0-.44,1.83Z"/><path class="cls-1" d="M623.06,304.15a4.66,4.66,0,0,0-1.55-1.43,4.35,4.35,0,0,0-2.26-.58,5.4,5.4,0,0,0-2.39.42,5.29,5.29,0,0,0-1.81,1.27,5.47,5.47,0,0,0-1.13,1.93,7.55,7.55,0,0,0,0,4.85,5.2,5.2,0,0,0,2.94,3.21,5.7,5.7,0,0,0,2.39.42,4.35,4.35,0,0,0,2.26-.59,4.56,4.56,0,0,0,1.55-1.43l1.76,1.34a7.15,7.15,0,0,1-2.58,2,7.53,7.53,0,0,1-3,.67,8.58,8.58,0,0,1-3.35-.57,7.39,7.39,0,0,1-2.55-1.67,7,7,0,0,1-1.61-2.56,9,9,0,0,1-.56-3.2,9.1,9.1,0,0,1,.56-3.21,7,7,0,0,1,1.61-2.55,7.27,7.27,0,0,1,2.55-1.68,8.58,8.58,0,0,1,3.35-.57,7.89,7.89,0,0,1,3,.67,7.18,7.18,0,0,1,2.58,2Z"/><path class="cls-1" d="M630.77,294.72a1.43,1.43,0,0,1-.49,1.12,1.57,1.57,0,0,1-1.07.44,1.61,1.61,0,0,1-1.08-.44,1.45,1.45,0,0,1-.48-1.12,1.47,1.47,0,0,1,.48-1.13,1.6,1.6,0,0,1,1.08-.43,1.56,1.56,0,0,1,1.07.43A1.45,1.45,0,0,1,630.77,294.72Zm-.49,21.08h-2.15V300.57h2.15Z"/><path class="cls-1" d="M635.45,304c0-.57,0-1.13,0-1.69l-.12-1.7h2.31v2.31h.07a5,5,0,0,1,2.16-2,6.12,6.12,0,0,1,2.75-.69,8,8,0,0,1,1.32.13,5,5,0,0,1,1.35.48,4.3,4.3,0,0,1,1.22,1,5.1,5.1,0,0,1,1,1.59,5,5,0,0,1,2.06-2.31,5.74,5.74,0,0,1,3-.85,5.58,5.58,0,0,1,4.33,1.55,6.36,6.36,0,0,1,1.4,4.41v9.66H656v-8.88a6.41,6.41,0,0,0-.82-3.55,3.36,3.36,0,0,0-3-1.23,3.92,3.92,0,0,0-2,.47,3.85,3.85,0,0,0-1.32,1.25,5.6,5.6,0,0,0-.73,1.77,9.38,9.38,0,0,0-.23,2.07v8.1h-2.14v-8.88a6.41,6.41,0,0,0-.82-3.55,3.36,3.36,0,0,0-3-1.23,6.25,6.25,0,0,0-.9.13,3.36,3.36,0,0,0-1.45.71,5.2,5.2,0,0,0-1.35,1.76,7.22,7.22,0,0,0-.6,3.25v7.81h-2.15Z"/><path class="cls-1" d="M666.3,294.72a1.43,1.43,0,0,1-.49,1.12,1.57,1.57,0,0,1-1.07.44,1.61,1.61,0,0,1-1.08-.44,1.45,1.45,0,0,1-.48-1.12,1.47,1.47,0,0,1,.48-1.13,1.6,1.6,0,0,1,1.08-.43,1.56,1.56,0,0,1,1.07.43A1.45,1.45,0,0,1,666.3,294.72Zm-.49,21.08h-2.15V300.57h2.15Z"/><path class="cls-1" d="M672.48,308.77a6.49,6.49,0,0,0,.55,2.15,5.83,5.83,0,0,0,1.21,1.74,5.61,5.61,0,0,0,1.72,1.16,5.31,5.31,0,0,0,2.12.42,5.46,5.46,0,0,0,3-.8,6,6,0,0,0,1.9-1.84l1.66,1.37a8.29,8.29,0,0,1-3,2.47,8.41,8.41,0,0,1-3.53.75,8.1,8.1,0,0,1-3.14-.6,7.21,7.21,0,0,1-2.49-1.68,7.78,7.78,0,0,1-1.64-2.53,8.17,8.17,0,0,1-.61-3.19,8.54,8.54,0,0,1,.59-3.19,7.64,7.64,0,0,1,1.63-2.54A7.79,7.79,0,0,1,681,300.8a6.92,6.92,0,0,1,2.3,1.64,7,7,0,0,1,1.41,2.41,8.7,8.7,0,0,1,.49,2.95v1ZM682.83,307a4.57,4.57,0,0,0-5-4.88,5.24,5.24,0,0,0-2,.4,5.63,5.63,0,0,0-1.7,1.09,5.74,5.74,0,0,0-1.18,1.56,4.11,4.11,0,0,0-.44,1.83Z"/><path class="cls-1" d="M691.13,300.57c0,.42.07.82.08,1.22s0,.81,0,1.22h.07a4.86,4.86,0,0,1,.91-1.13,5.87,5.87,0,0,1,1.24-.9,7,7,0,0,1,1.44-.59,5.74,5.74,0,0,1,1.52-.21,5.54,5.54,0,0,1,4.32,1.55,6.31,6.31,0,0,1,1.4,4.41v9.66H700v-8.43a7.17,7.17,0,0,0-.87-3.88,3.6,3.6,0,0,0-3.26-1.35,7.43,7.43,0,0,0-.91.13,3.9,3.9,0,0,0-1.58.71,5.29,5.29,0,0,0-1.48,1.76,6.78,6.78,0,0,0-.65,3.25v7.81h-2.14V303.93c0-.42,0-.94-.05-1.57s-.07-1.22-.12-1.79Z"/><path class="cls-1" d="M715,302.53h-4.39v9a4.84,4.84,0,0,0,.16,1.38,2,2,0,0,0,.45.83,1.68,1.68,0,0,0,.71.41,3.5,3.5,0,0,0,.89.11,4.18,4.18,0,0,0,1.14-.16,4.88,4.88,0,0,0,1.07-.43l.1,2a6.88,6.88,0,0,1-2.9.55A5.28,5.28,0,0,1,711,316a3.07,3.07,0,0,1-1.22-.62,3.35,3.35,0,0,1-.91-1.23,5,5,0,0,1-.36-2.06v-9.59h-3.22v-2h3.22v-4.29h2.15v4.29H715Z"/><path class="cls-1" d="M733.36,308.19a8.35,8.35,0,0,1-.6,3.19,7.63,7.63,0,0,1-4.23,4.21,8.67,8.67,0,0,1-3.28.6,8.48,8.48,0,0,1-3.23-.6,7.6,7.6,0,0,1-2.56-1.68,7.7,7.7,0,0,1-1.67-2.53,8.78,8.78,0,0,1,0-6.38,7.47,7.47,0,0,1,4.23-4.21,8.3,8.3,0,0,1,3.23-.61,8.48,8.48,0,0,1,3.28.61,7.54,7.54,0,0,1,4.23,4.21A8.35,8.35,0,0,1,733.36,308.19Zm-2.35,0a6.87,6.87,0,0,0-.4-2.38,5.84,5.84,0,0,0-1.16-1.92,5.42,5.42,0,0,0-1.8-1.28,6.34,6.34,0,0,0-4.79,0,5.28,5.28,0,0,0-1.79,1.28,6.35,6.35,0,0,0-1.14,1.92,7.25,7.25,0,0,0,0,4.75,6.11,6.11,0,0,0,1.14,1.92,5.44,5.44,0,0,0,1.79,1.29,6.34,6.34,0,0,0,4.79,0,5.53,5.53,0,0,0,3-3.21A6.82,6.82,0,0,0,731,308.19Z"/><path class="cls-1" d="M745.33,304.19a4,4,0,0,0-1.3-1.5,3.42,3.42,0,0,0-2-.55,4.9,4.9,0,0,0-1.13.13,3.29,3.29,0,0,0-1,.4,2.33,2.33,0,0,0-.73.7,1.82,1.82,0,0,0-.28,1,1.74,1.74,0,0,0,.75,1.57,7.52,7.52,0,0,0,2.24.84l2.18.52a5.12,5.12,0,0,1,2.65,1.45,3.73,3.73,0,0,1,1.06,2.72,4.12,4.12,0,0,1-1.84,3.59,5.55,5.55,0,0,1-1.9.83,8.85,8.85,0,0,1-2.18.26,7.94,7.94,0,0,1-3.27-.67,6,6,0,0,1-2.59-2.29l1.86-1.27a5,5,0,0,0,1.64,1.66,4.39,4.39,0,0,0,2.36.62,5.7,5.7,0,0,0,1.3-.15,3.74,3.74,0,0,0,1.16-.45,2.58,2.58,0,0,0,.81-.8,2,2,0,0,0,.31-1.14,1.75,1.75,0,0,0-.85-1.64,7.31,7.31,0,0,0-2.05-.8l-2.08-.49c-.26-.06-.61-.17-1.06-.32a5,5,0,0,1-1.3-.69,4.14,4.14,0,0,1-1.09-1.18,3.4,3.4,0,0,1-.45-1.81,4.22,4.22,0,0,1,.47-2,4.07,4.07,0,0,1,1.27-1.43,5.71,5.71,0,0,1,1.8-.83,8.1,8.1,0,0,1,2.09-.28,7.14,7.14,0,0,1,3,.62,4.35,4.35,0,0,1,2.11,2.12Z"/><path class="cls-1" d="M322.24,344h-2.15v-2.54H320a5.21,5.21,0,0,1-1.23,1.33,7.86,7.86,0,0,1-1.5.92,7.75,7.75,0,0,1-1.61.52,8.91,8.91,0,0,1-1.58.16,8.65,8.65,0,0,1-3.27-.6,7.6,7.6,0,0,1-4.23-4.22,8.75,8.75,0,0,1,0-6.37,7.6,7.6,0,0,1,4.23-4.22,8.65,8.65,0,0,1,3.27-.6,8.07,8.07,0,0,1,1.58.16,7.75,7.75,0,0,1,1.61.52,8.34,8.34,0,0,1,1.5.91,5.43,5.43,0,0,1,1.23,1.34h.07V319.36h2.15Zm-13.9-7.62a6.88,6.88,0,0,0,.41,2.38,5.64,5.64,0,0,0,1.16,1.92,5.32,5.32,0,0,0,1.8,1.28,5.73,5.73,0,0,0,2.39.48,6.13,6.13,0,0,0,2.43-.48,5.87,5.87,0,0,0,1.93-1.28,5.6,5.6,0,0,0,1.27-1.92,6.36,6.36,0,0,0,0-4.75,5.6,5.6,0,0,0-1.27-1.92,6.05,6.05,0,0,0-1.93-1.29,6.3,6.3,0,0,0-2.43-.47,5.89,5.89,0,0,0-2.39.47,5.48,5.48,0,0,0-1.8,1.29,5.64,5.64,0,0,0-1.16,1.92A6.86,6.86,0,0,0,308.34,336.34Z"/><path class="cls-1" d="M328.42,336.93a6.49,6.49,0,0,0,.55,2.15,5.83,5.83,0,0,0,1.21,1.74A5.58,5.58,0,0,0,331.9,342a5.15,5.15,0,0,0,2.12.43,5.43,5.43,0,0,0,3-.8,6,6,0,0,0,1.91-1.84l1.66,1.37a8.29,8.29,0,0,1-3,2.47,8.44,8.44,0,0,1-3.53.75,8.1,8.1,0,0,1-3.14-.6,7.21,7.21,0,0,1-2.49-1.68,7.85,7.85,0,0,1-1.65-2.54,8.31,8.31,0,0,1-.6-3.19,8.45,8.45,0,0,1,.59-3.18,7.67,7.67,0,0,1,1.62-2.54,7.5,7.5,0,0,1,2.44-1.68,7.66,7.66,0,0,1,3-.6,7.44,7.44,0,0,1,3.09.62,6.92,6.92,0,0,1,2.3,1.64,7.16,7.16,0,0,1,1.41,2.41,8.64,8.64,0,0,1,.49,2.94v1Zm10.35-1.76a4.87,4.87,0,0,0-1.31-3.53,4.81,4.81,0,0,0-3.64-1.35,5.25,5.25,0,0,0-2,.41,5.45,5.45,0,0,0-1.7,1.09,5.59,5.59,0,0,0-1.18,1.56,4.07,4.07,0,0,0-.44,1.82Z"/><path class="cls-1" d="M357.18,341.81h12.33V344H354.84v-23h14.28v2.15H357.18v7.84h11.16v2.15H357.18Z"/><path class="cls-1" d="M388.55,344H386.4v-2.54h-.06a5.44,5.44,0,0,1-1.24,1.33,7.86,7.86,0,0,1-1.5.92,7.75,7.75,0,0,1-1.61.52,8.91,8.91,0,0,1-1.58.16,8.65,8.65,0,0,1-3.27-.6,7.6,7.6,0,0,1-4.23-4.22,8.75,8.75,0,0,1,0-6.37,7.51,7.51,0,0,1,1.68-2.54,7.65,7.65,0,0,1,2.55-1.68,8.65,8.65,0,0,1,3.27-.6,8.07,8.07,0,0,1,1.58.16,7.75,7.75,0,0,1,1.61.52,8.34,8.34,0,0,1,1.5.91,5.67,5.67,0,0,1,1.24,1.34h.06V319.36h2.15Zm-13.9-7.62a6.88,6.88,0,0,0,.41,2.38,5.64,5.64,0,0,0,1.16,1.92,5.32,5.32,0,0,0,1.8,1.28,5.73,5.73,0,0,0,2.39.48,6.13,6.13,0,0,0,2.43-.48,5.87,5.87,0,0,0,1.93-1.28,5.6,5.6,0,0,0,1.27-1.92,6.36,6.36,0,0,0,0-4.75,5.6,5.6,0,0,0-1.27-1.92,6.05,6.05,0,0,0-1.93-1.29,6.3,6.3,0,0,0-2.43-.47,5.89,5.89,0,0,0-2.39.47,5.48,5.48,0,0,0-1.8,1.29,5.64,5.64,0,0,0-1.16,1.92A6.86,6.86,0,0,0,374.65,336.34Z"/><path class="cls-1" d="M404.23,344c0-.41-.07-.82-.08-1.22s0-.81,0-1.22h-.06a5.13,5.13,0,0,1-.91,1.14,6.21,6.21,0,0,1-1.24.89,6.58,6.58,0,0,1-1.45.59,5.67,5.67,0,0,1-1.51.21,5.57,5.57,0,0,1-4.33-1.55,6.36,6.36,0,0,1-1.4-4.41v-9.66h2.15v8.43a11.5,11.5,0,0,0,.2,2.24,4.4,4.4,0,0,0,.66,1.65,3,3,0,0,0,1.27,1,5.25,5.25,0,0,0,2,.34c.11,0,.41,0,.91-.13a4,4,0,0,0,1.58-.72,5.07,5.07,0,0,0,1.48-1.76,6.66,6.66,0,0,0,.65-3.25v-7.81h2.15v11.88c0,.41,0,.93.05,1.56s.07,1.22.11,1.79Z"/><path class="cls-1" d="M422.42,332.31a4.57,4.57,0,0,0-1.55-1.43,4.35,4.35,0,0,0-2.26-.59,5.57,5.57,0,0,0-2.39.43,5.27,5.27,0,0,0-1.81,1.26,5.67,5.67,0,0,0-1.13,1.94,7.73,7.73,0,0,0,0,4.85,5.53,5.53,0,0,0,1.13,1.93,5.16,5.16,0,0,0,1.81,1.27,5.57,5.57,0,0,0,2.39.43,4.35,4.35,0,0,0,2.26-.59,4.57,4.57,0,0,0,1.55-1.43l1.76,1.33a7.24,7.24,0,0,1-2.57,2,7.8,7.8,0,0,1-3,.67,8.58,8.58,0,0,1-3.35-.57,7.27,7.27,0,0,1-2.55-1.68,6.89,6.89,0,0,1-1.61-2.55,9.45,9.45,0,0,1,0-6.41,6.89,6.89,0,0,1,1.61-2.55,7.27,7.27,0,0,1,2.55-1.68,8.58,8.58,0,0,1,3.35-.57,7.62,7.62,0,0,1,3,.67,7.24,7.24,0,0,1,2.57,2Z"/><path class="cls-1" d="M436.77,334.62v-.39c0-2.62-1.3-3.94-3.91-3.94a6.73,6.73,0,0,0-4.65,1.79l-1.3-1.53q2.14-2.21,6.44-2.21a6.88,6.88,0,0,1,2.13.33,4.52,4.52,0,0,1,1.77,1,5,5,0,0,1,1.21,1.67,5.92,5.92,0,0,1,.45,2.41v6.8c0,.59,0,1.2.09,1.84s.11,1.17.18,1.58h-2.09c-.06-.37-.11-.77-.14-1.21s-.05-.85-.05-1.26h-.07a5.75,5.75,0,0,1-2.23,2.19,7.39,7.39,0,0,1-5.09.39,4.78,4.78,0,0,1-1.67-.84,4.43,4.43,0,0,1-1.18-1.4,4.77,4.77,0,0,1,.53-4.85,5.86,5.86,0,0,1,2.4-1.58,11.94,11.94,0,0,1,3.1-.65c1.09-.09,2.09-.13,3-.13Zm-1.11,1.76c-.54,0-1.22,0-2,.08a11.2,11.2,0,0,0-2.35.39,5.13,5.13,0,0,0-1.91,1,2.16,2.16,0,0,0-.8,1.79,2.45,2.45,0,0,0,.31,1.28,2.5,2.5,0,0,0,.83.88,3.48,3.48,0,0,0,1.15.49,5.55,5.55,0,0,0,1.29.15,4.87,4.87,0,0,0,2-.39,4.14,4.14,0,0,0,2.31-2.62,6.58,6.58,0,0,0,.28-1.91v-1.1Z"/><path class="cls-1" d="M455,332.31a4.66,4.66,0,0,0-1.55-1.43,4.35,4.35,0,0,0-2.26-.59,5.54,5.54,0,0,0-2.39.43A5.27,5.27,0,0,0,447,332a5.51,5.51,0,0,0-1.13,1.94,7.55,7.55,0,0,0,0,4.85A5.38,5.38,0,0,0,447,340.7a5.16,5.16,0,0,0,1.81,1.27,5.54,5.54,0,0,0,2.39.43,4.35,4.35,0,0,0,2.26-.59,4.66,4.66,0,0,0,1.55-1.43l1.76,1.33a7.18,7.18,0,0,1-2.58,2,7.71,7.71,0,0,1-3,.67,8.58,8.58,0,0,1-3.35-.57,7.27,7.27,0,0,1-2.55-1.68,6.89,6.89,0,0,1-1.61-2.55,9.45,9.45,0,0,1,0-6.41,6.89,6.89,0,0,1,1.61-2.55,7.27,7.27,0,0,1,2.55-1.68,8.58,8.58,0,0,1,3.35-.57,7.53,7.53,0,0,1,3,.67,7.18,7.18,0,0,1,2.58,2Z"/><path class="cls-1" d="M462.7,322.87a1.45,1.45,0,0,1-.49,1.13,1.57,1.57,0,0,1-1.07.44,1.61,1.61,0,0,1-1.08-.44,1.47,1.47,0,0,1-.48-1.13,1.45,1.45,0,0,1,.48-1.12,1.61,1.61,0,0,1,1.08-.44,1.57,1.57,0,0,1,1.07.44A1.43,1.43,0,0,1,462.7,322.87ZM462.21,344h-2.15V328.73h2.15Z"/><path class="cls-1" d="M482.78,336.34a8.32,8.32,0,0,1-.61,3.19,7.74,7.74,0,0,1-1.67,2.54,7.6,7.6,0,0,1-2.56,1.68,9.13,9.13,0,0,1-6.51,0,7.65,7.65,0,0,1-2.55-1.68,7.74,7.74,0,0,1-1.67-2.54,8.62,8.62,0,0,1,0-6.37,7.54,7.54,0,0,1,4.22-4.22,9.13,9.13,0,0,1,6.51,0,7.52,7.52,0,0,1,4.23,4.22A8.27,8.27,0,0,1,482.78,336.34Zm-2.35,0A6.64,6.64,0,0,0,480,334a5.62,5.62,0,0,0-1.15-1.92,5.53,5.53,0,0,0-1.81-1.29,6.31,6.31,0,0,0-4.78,0,5.44,5.44,0,0,0-1.79,1.29,5.76,5.76,0,0,0-1.14,1.92,7.25,7.25,0,0,0,0,4.75,5.76,5.76,0,0,0,1.14,1.92,5.28,5.28,0,0,0,1.79,1.28,6.19,6.19,0,0,0,4.78,0,5.36,5.36,0,0,0,1.81-1.28,5.62,5.62,0,0,0,1.15-1.92A6.65,6.65,0,0,0,480.43,336.34Zm-5.79-10.73h-1.92l3.26-4.69h3Z"/><path class="cls-1" d="M488.73,328.73c0,.41.07.82.08,1.22s0,.81,0,1.22h.06a5.43,5.43,0,0,1,.91-1.14,6.21,6.21,0,0,1,1.24-.89,6.79,6.79,0,0,1,1.45-.59,5.67,5.67,0,0,1,1.51-.21,5.57,5.57,0,0,1,4.33,1.55,6.35,6.35,0,0,1,1.4,4.4V344h-2.15v-8.43a7.11,7.11,0,0,0-.88-3.89,3.58,3.58,0,0,0-3.25-1.35c-.11,0-.42,0-.91.13a4,4,0,0,0-1.58.72,5.18,5.18,0,0,0-1.48,1.76,6.66,6.66,0,0,0-.65,3.25V344h-2.15V332.08c0-.41,0-.93-.05-1.56s-.07-1.22-.11-1.79Z"/><path class="cls-1" d="M514.6,320.92h6.7a9.05,9.05,0,0,1,5.55,1.53,6.3,6.3,0,0,1,0,9.26,9,9,0,0,1-5.55,1.54h-4.36V344H514.6Zm2.34,10.19h3.77a9.33,9.33,0,0,0,2.66-.33,5.05,5.05,0,0,0,1.74-.86,3.22,3.22,0,0,0,.94-1.27,4.11,4.11,0,0,0,.29-1.58,4,4,0,0,0-.29-1.54,3.36,3.36,0,0,0-.94-1.29,4.72,4.72,0,0,0-1.74-.86,9.76,9.76,0,0,0-2.66-.31h-3.77Z"/><path class="cls-1" d="M542.25,334.62v-.39c0-2.62-1.3-3.94-3.9-3.94a6.73,6.73,0,0,0-4.65,1.79l-1.31-1.53c1.44-1.47,3.58-2.21,6.45-2.21a7,7,0,0,1,2.13.33,4.67,4.67,0,0,1,1.77,1,4.8,4.8,0,0,1,1.2,1.67,5.76,5.76,0,0,1,.46,2.41v6.8c0,.59,0,1.2.08,1.84s.12,1.17.18,1.58h-2.08a10.25,10.25,0,0,1-.15-1.21c0-.43,0-.85,0-1.26h-.06a5.75,5.75,0,0,1-2.23,2.19,7.39,7.39,0,0,1-5.09.39,4.91,4.91,0,0,1-1.68-.84,4.28,4.28,0,0,1-1.17-1.4,4.73,4.73,0,0,1,.52-4.85,5.83,5.83,0,0,1,2.41-1.58,11.78,11.78,0,0,1,3.09-.65c1.09-.09,2.1-.13,3-.13Zm-1.1,1.76c-.55,0-1.22,0-2,.08a11.22,11.22,0,0,0-2.34.39,5.1,5.1,0,0,0-1.92,1,2.19,2.19,0,0,0-.8,1.79,2.45,2.45,0,0,0,.31,1.28,2.59,2.59,0,0,0,.83.88,3.53,3.53,0,0,0,1.16.49,5.53,5.53,0,0,0,1.28.15,5,5,0,0,0,2-.39,4.28,4.28,0,0,0,1.44-1.06,4.42,4.42,0,0,0,.87-1.56,6.58,6.58,0,0,0,.27-1.91v-1.1Z"/><path class="cls-1" d="M549.61,333.48c0-.67,0-1.35-.05-2.05s-.06-1.59-.08-2.7h2.11v2.83h.07a4.49,4.49,0,0,1,.65-1.19,4.93,4.93,0,0,1,1-1,5,5,0,0,1,1.4-.73,5.33,5.33,0,0,1,1.81-.28,5.8,5.8,0,0,1,1.59.2l-.42,2.11a3.61,3.61,0,0,0-1.24-.16,4.44,4.44,0,0,0-2.11.47,4.7,4.7,0,0,0-1.47,1.2,5.2,5.2,0,0,0-.86,1.58,5.42,5.42,0,0,0-.28,1.63V344h-2.14Z"/><path class="cls-1" d="M568.05,330.68h-4.39v9a4.83,4.83,0,0,0,.17,1.39,1.89,1.89,0,0,0,.45.83,1.59,1.59,0,0,0,.7.4,3.14,3.14,0,0,0,.89.12,4.2,4.2,0,0,0,1.14-.17,4.66,4.66,0,0,0,1.08-.42l.09,2a7,7,0,0,1-2.89.55,6,6,0,0,1-1.29-.16,3.14,3.14,0,0,1-1.22-.62,3.48,3.48,0,0,1-.91-1.24,4.93,4.93,0,0,1-.36-2.05v-9.6h-3.22v-1.95h3.22v-4.29h2.15v4.29h4.39Z"/><path class="cls-1" d="M574.11,322.87a1.48,1.48,0,0,1-.49,1.13,1.53,1.53,0,0,1-2.15,0,1.48,1.48,0,0,1-.49-1.13,1.46,1.46,0,0,1,.49-1.12,1.53,1.53,0,0,1,2.15,0A1.46,1.46,0,0,1,574.11,322.87ZM573.62,344h-2.15V328.73h2.15Z"/><path class="cls-1" d="M589.89,332.31a4.66,4.66,0,0,0-1.55-1.43,4.35,4.35,0,0,0-2.26-.59,5.54,5.54,0,0,0-2.39.43,5.17,5.17,0,0,0-1.81,1.26,5.53,5.53,0,0,0-1.14,1.94,7.73,7.73,0,0,0,0,4.85,5.4,5.4,0,0,0,1.14,1.93,5.07,5.07,0,0,0,1.81,1.27,5.54,5.54,0,0,0,2.39.43,4.35,4.35,0,0,0,2.26-.59,4.66,4.66,0,0,0,1.55-1.43l1.75,1.33a7.15,7.15,0,0,1-2.57,2,7.71,7.71,0,0,1-3,.67,8.51,8.51,0,0,1-3.35-.57,7.4,7.4,0,0,1-2.56-1.68,7.15,7.15,0,0,1-1.61-2.55,9.61,9.61,0,0,1,0-6.41,7.15,7.15,0,0,1,1.61-2.55,7.4,7.4,0,0,1,2.56-1.68,8.51,8.51,0,0,1,3.35-.57,7.53,7.53,0,0,1,3,.67,7.15,7.15,0,0,1,2.57,2Z"/><path class="cls-1" d="M605.47,344c0-.41-.07-.82-.08-1.22s0-.81,0-1.22h-.06a5.13,5.13,0,0,1-.91,1.14,6.51,6.51,0,0,1-1.24.89,6.79,6.79,0,0,1-1.45.59,5.67,5.67,0,0,1-1.51.21,5.57,5.57,0,0,1-4.33-1.55,6.36,6.36,0,0,1-1.4-4.41v-9.66h2.15v8.43a12.4,12.4,0,0,0,.19,2.24,4.57,4.57,0,0,0,.67,1.65,3,3,0,0,0,1.27,1,5.25,5.25,0,0,0,2,.34c.11,0,.41,0,.91-.13a4,4,0,0,0,1.58-.72,5.18,5.18,0,0,0,1.48-1.76,6.66,6.66,0,0,0,.65-3.25v-7.81h2.15v11.88c0,.41,0,.93.05,1.56s.07,1.22.11,1.79Z"/><path class="cls-1" d="M615.2,344h-2.15v-24.6h2.15Z"/><path class="cls-1" d="M630.14,334.62v-.39c0-2.62-1.31-3.94-3.91-3.94a6.73,6.73,0,0,0-4.65,1.79l-1.3-1.53q2.15-2.21,6.44-2.21a6.92,6.92,0,0,1,2.13.33,4.67,4.67,0,0,1,1.77,1,5,5,0,0,1,1.21,1.67,5.92,5.92,0,0,1,.45,2.41v6.8c0,.59,0,1.2.08,1.84s.12,1.17.18,1.58h-2.08c-.07-.37-.11-.77-.15-1.21s0-.85,0-1.26h-.07a5.75,5.75,0,0,1-2.23,2.19,7.39,7.39,0,0,1-5.09.39,4.91,4.91,0,0,1-1.68-.84,4.54,4.54,0,0,1-1.17-1.4,4.73,4.73,0,0,1,.52-4.85A5.83,5.83,0,0,1,623,335.4a12,12,0,0,1,3.09-.65c1.1-.09,2.1-.13,3-.13ZM629,336.38c-.54,0-1.22,0-2,.08a11.2,11.2,0,0,0-2.35.39,5.1,5.1,0,0,0-1.92,1,2.19,2.19,0,0,0-.8,1.79,2.55,2.55,0,0,0,.31,1.28,2.69,2.69,0,0,0,.83.88,3.62,3.62,0,0,0,1.16.49,5.53,5.53,0,0,0,1.28.15,4.92,4.92,0,0,0,2-.39A4.32,4.32,0,0,0,629,341a4.4,4.4,0,0,0,.86-1.56,6.58,6.58,0,0,0,.28-1.91v-1.1Z"/><path class="cls-1" d="M637.49,333.48c0-.67,0-1.35,0-2.05s-.06-1.59-.08-2.7h2.11v2.83h.07a4.79,4.79,0,0,1,.65-1.19,4.93,4.93,0,0,1,1-1,5,5,0,0,1,1.4-.73,5.37,5.37,0,0,1,1.81-.28,5.8,5.8,0,0,1,1.59.2l-.42,2.11a3.61,3.61,0,0,0-1.24-.16,4.44,4.44,0,0,0-2.11.47,4.7,4.7,0,0,0-1.47,1.2,5.2,5.2,0,0,0-.86,1.58,5.4,5.4,0,0,0-.27,1.63V344h-2.15Z"/><path class="cls-1" d="M660.23,341.81H671V344H657.89v-23h2.34Z"/><path class="cls-1" d="M683.14,334.62v-.39c0-2.62-1.3-3.94-3.91-3.94a6.73,6.73,0,0,0-4.65,1.79l-1.3-1.53q2.15-2.21,6.44-2.21a6.88,6.88,0,0,1,2.13.33,4.52,4.52,0,0,1,1.77,1,5,5,0,0,1,1.21,1.67,5.92,5.92,0,0,1,.45,2.41v6.8c0,.59,0,1.2.09,1.84s.11,1.17.17,1.58h-2.08c-.06-.37-.11-.77-.14-1.21s-.05-.85-.05-1.26h-.07a5.75,5.75,0,0,1-2.23,2.19,7.39,7.39,0,0,1-5.09.39,4.78,4.78,0,0,1-1.67-.84,4.43,4.43,0,0,1-1.18-1.4,4.77,4.77,0,0,1,.53-4.85,5.8,5.8,0,0,1,2.4-1.58,12,12,0,0,1,3.09-.65c1.1-.09,2.1-.13,3-.13ZM682,336.38c-.54,0-1.22,0-2,.08a11.2,11.2,0,0,0-2.35.39,5.13,5.13,0,0,0-1.91,1,2.16,2.16,0,0,0-.8,1.79,2.45,2.45,0,0,0,.31,1.28,2.5,2.5,0,0,0,.83.88,3.48,3.48,0,0,0,1.15.49,5.55,5.55,0,0,0,1.29.15,4.87,4.87,0,0,0,2-.39,4.14,4.14,0,0,0,2.31-2.62,6.58,6.58,0,0,0,.28-1.91v-1.1Z"/><path class="cls-1" d="M693.39,322.87a1.48,1.48,0,0,1-.49,1.13,1.61,1.61,0,0,1-1.08.44,1.59,1.59,0,0,1-1.07-.44,1.45,1.45,0,0,1-.49-1.13,1.43,1.43,0,0,1,.49-1.12,1.59,1.59,0,0,1,1.07-.44,1.61,1.61,0,0,1,1.08.44A1.46,1.46,0,0,1,693.39,322.87ZM692.9,344h-2.15V328.73h2.15Z"/><path class="cls-1" d="M709.17,332.31a4.66,4.66,0,0,0-1.55-1.43,4.35,4.35,0,0,0-2.26-.59,5.54,5.54,0,0,0-2.39.43,5.17,5.17,0,0,0-1.81,1.26,5.53,5.53,0,0,0-1.14,1.94,7.73,7.73,0,0,0,0,4.85,5.4,5.4,0,0,0,1.14,1.93A5.07,5.07,0,0,0,703,342a5.54,5.54,0,0,0,2.39.43,4.35,4.35,0,0,0,2.26-.59,4.66,4.66,0,0,0,1.55-1.43l1.75,1.33a7.15,7.15,0,0,1-2.57,2,7.71,7.71,0,0,1-3,.67,8.55,8.55,0,0,1-3.35-.57,7.4,7.4,0,0,1-2.56-1.68,7.15,7.15,0,0,1-1.61-2.55,9.61,9.61,0,0,1,0-6.41,7.15,7.15,0,0,1,1.61-2.55,7.4,7.4,0,0,1,2.56-1.68,8.55,8.55,0,0,1,3.35-.57,7.53,7.53,0,0,1,3,.67,7.15,7.15,0,0,1,2.57,2Z"/><path class="cls-1" d="M723.52,334.62v-.39c0-2.62-1.31-3.94-3.91-3.94a6.73,6.73,0,0,0-4.65,1.79l-1.3-1.53q2.15-2.21,6.44-2.21a6.92,6.92,0,0,1,2.13.33,4.67,4.67,0,0,1,1.77,1,5,5,0,0,1,1.21,1.67,5.92,5.92,0,0,1,.45,2.41v6.8c0,.59,0,1.2.08,1.84s.12,1.17.18,1.58h-2.08c-.07-.37-.11-.77-.15-1.21s0-.85,0-1.26h-.07a5.75,5.75,0,0,1-2.23,2.19,7.39,7.39,0,0,1-5.09.39,4.91,4.91,0,0,1-1.68-.84,4.54,4.54,0,0,1-1.17-1.4,4.73,4.73,0,0,1,.52-4.85,5.83,5.83,0,0,1,2.41-1.58,12,12,0,0,1,3.09-.65c1.1-.09,2.1-.13,3-.13Zm-1.11,1.76c-.54,0-1.22,0-2,.08a11.2,11.2,0,0,0-2.35.39,5.1,5.1,0,0,0-1.92,1,2.19,2.19,0,0,0-.8,1.79,2.55,2.55,0,0,0,.31,1.28,2.69,2.69,0,0,0,.83.88,3.62,3.62,0,0,0,1.16.49,5.53,5.53,0,0,0,1.28.15,4.92,4.92,0,0,0,2-.39,4.32,4.32,0,0,0,1.45-1.06,4.4,4.4,0,0,0,.86-1.56,6.58,6.58,0,0,0,.28-1.91v-1.1Z"/><path class="cls-2" d="M260.19,209.82a108,108,0,0,0-23.51-44.24,108,108,0,0,0-26.9-22,107.21,107.21,0,0,0-26.91-11c-8.6-2.21-14.58-3.39-23.87-3.39h-3V156h0a80.7,80.7,0,0,1,53.82,20.57,82.32,82.32,0,0,1,6.33,6.34,80.63,80.63,0,0,1,0,107.62,82.32,82.32,0,0,1-6.33,6.34A80.7,80.7,0,0,1,156,317.45v26.9a107.46,107.46,0,0,0,71.15-26.9,109.4,109.4,0,0,0,9.57-9.57,107.68,107.68,0,0,0,23.51-98.06Z"/><polygon class="cls-2" points="75.25 182.92 75.25 165.58 75.25 156.01 123.28 156.01 123.28 129.11 48.34 129.11 48.34 156.01 48.34 182.92 48.34 209.82 48.34 223.28 48.34 225.44 48.34 247.79 48.34 250.18 48.34 263.63 48.34 290.54 48.34 317.44 48.34 344.35 75.25 344.35 75.25 317.44 75.25 307.88 75.25 290.54 75.25 263.63 75.25 250.18 129.05 250.18 129.05 223.28 75.25 223.28 75.25 209.82 75.25 182.92"/><path class="cls-1" d="M202.56,209.82a53.86,53.86,0,0,0-46.6-26.9H144.13v26.9H156a26.91,26.91,0,0,1,0,53.82H102.15v80.71h26.91V290.54H156a53.8,53.8,0,0,0,46.6-80.72Z"/><path class="cls-2" d="M284.81,188h50.34V203.3H301.34v15.25H332.6v15.26H301.34v29.25H284.81Z"/><path class="cls-2" d="M347.65,188h51V203.3H364.18v14h32.53v15.26H364.18V247.8h36.35v15.26H347.65Z"/><path class="cls-2" d="M413.77,188h24.8a70.86,70.86,0,0,1,17.11,2,39.08,39.08,0,0,1,14.15,6.52,32,32,0,0,1,9.59,11.71q3.54,7.2,3.55,17.48a35.57,35.57,0,0,1-3.45,16.05,34.34,34.34,0,0,1-9.27,11.66,40.89,40.89,0,0,1-13.46,7.15,52.08,52.08,0,0,1-16,2.44h-27ZM430.3,247.8h8.59a46.51,46.51,0,0,0,10.64-1.16,22.9,22.9,0,0,0,8.54-3.87,18.48,18.48,0,0,0,5.66-7.1,25.15,25.15,0,0,0,2.07-10.76,21,21,0,0,0-2.07-9.59,19.13,19.13,0,0,0-5.56-6.73,24.41,24.41,0,0,0-8.21-4,36.59,36.59,0,0,0-9.91-1.32H430.3Z"/><path class="cls-2" d="M494.83,188h51V203.3H511.36v14H543.9v15.26H511.36V247.8h36.35v15.26H494.83Z"/><path class="cls-3" d="M561,188h27.86a54.73,54.73,0,0,1,11,1.06,25,25,0,0,1,9.07,3.65,18.5,18.5,0,0,1,6.14,7,23.91,23.91,0,0,1,2.28,11.07,25.6,25.6,0,0,1-2.12,11,18.09,18.09,0,0,1-5.83,7.1,23.5,23.5,0,0,1-8.79,3.76,51.7,51.7,0,0,1-11,1.11H577.49v29.25H561Zm16.53,31.79h11a20.81,20.81,0,0,0,4.29-.43,11.42,11.42,0,0,0,3.71-1.43,7.77,7.77,0,0,0,2.65-2.75,8.73,8.73,0,0,0,1-4.4,7.46,7.46,0,0,0-1.32-4.61,8.74,8.74,0,0,0-3.39-2.7,14.55,14.55,0,0,0-4.61-1.22A46.3,46.3,0,0,0,586,202h-8.47Z"/><path class="cls-2" d="M644.56,188h13.67l32.64,75H672.22l-6.47-15.89H636.62l-6.26,15.89H612.14Zm6.36,21.83-9.11,23.31h18.33Z"/><path class="cls-2" d="M699,188h16.53V247.8h30.62v15.26H699Z"/><path class="cls-2" d="M747.08,280.59H284.33a1.27,1.27,0,0,1,0-2.53H747.08a1.27,1.27,0,0,1,0,2.53Z"/><path class="cls-3" d="M135.29,210s-21.4-77.84,15.1-155.07c0,0-2,27.09-1,31.52,0,0-8.55,12.06-8.11,17.64,0,0,6.8-12.06,8.43-12.87,0,0,1.12,9.89,1.82,10.71,0,0-8.19,8.69-9.63,18.68,0,0,8.56-13.8,10-14.49,0,0,4.4,28.87-13,52.87l-5.45-4.56,3.69,7.46S132.12,192.72,135.29,210Z"/></svg>