<svg id="Capa_1" data-name="Capa 1" xmlns="http://www.w3.org/2000/svg" viewBox="0 0 800 800"><defs><style>.cls-1{fill:#2e307a;}</style></defs><title>iconos fedepal 2</title><path class="cls-1" d="M420.91,664.13v-39c-3.53,0-7-.73-10,.11-47.47,13.36-47.56,13.48-74.1-27.06-20.07-30.65-41.72-60.51-58.71-92.8-6-11.43-6.24-34.56,1.3-42.63,14.71-15.76,32.38-8,44.25,10.09,21.51,32.88,43.4,65.5,66.9,100.9,37.18-17.35,74.57-33.68,110.86-52.17,20.27-10.32,39.15-14.16,61.21-6.13a77.07,77.07,0,0,0,36.62,3.75c59.19-9.14,95.05,3.93,124.15,56.81,14.47,26.29,18,58.56,26.56,88.13Z"/><path class="cls-1" d="M584.51,506.63c-50.46-.26-89.46-40.28-88.89-91.23.57-51.59,38.52-87.69,91.68-87.2,50.16.47,88.67,39.13,88.26,88.61A90.51,90.51,0,0,1,584.51,506.63Z"/><polygon class="cls-1" points="263.55 585.45 50 585.45 50 135.87 589.5 135.87 589.5 313.2 567.02 313.2 567.02 158.35 72.48 158.35 72.48 562.97 263.55 562.97 263.55 585.45"/><rect class="cls-1" x="128.68" y="203.31" width="269.75" height="22.48"/><rect class="cls-1" x="128.68" y="259.51" width="269.75" height="22.48"/><rect class="cls-1" x="128.68" y="326.94" width="269.75" height="22.48"/></svg>