<svg id="Capa_1" data-name="Capa 1" xmlns="http://www.w3.org/2000/svg" viewBox="0 0 800 800"><defs><style>.cls-1{fill:#2e307a;}</style></defs><title>iconos fedepal 2</title><path class="cls-1" d="M415.32,726.5v.75h1.25C416.07,727,415.82,726.75,415.32,726.5Z"/><path class="cls-1" d="M673.12,161.81c-16.84.75-33.67.25-52.77.25V100H179.65v62.06c-19.1,0-35.93.5-52.77-.25-21.1-1-30.9,6.53-30.15,29.4,1.76,77.13,36.18,134.67,98.5,178.64,20.6,14.32,36.68,35.18,54.52,53.27,23.11,23.61,46.23,47,68.09,71.6,8.79,9.8,33.67,37.94,33.67,42,0,6.54-9.3,11.56-21.61,12.31a.25.25,0,0,1-.25.26H301.26V599.5H251V700h100.5v-.75h97V700H549V599.5H498.74V549.25H470.35a.25.25,0,0,1-.25-.26c-12.31-.75-21.61-5.77-21.61-12.31,0-4,24.88-32.16,33.67-42,21.86-24.62,45-48,68.09-71.6,17.84-18.09,33.92-38.95,54.52-53.27,62.32-44,96.74-101.51,98.5-178.64C704,168.34,694.22,160.8,673.12,161.81ZM132.66,197h51c7.54,44.73,14.57,86.94,22.11,132.17C157.29,302,127.14,246.73,132.66,197ZM594.22,329.15c7.54-45.23,14.57-87.44,22.11-132.17h51C672.86,246.73,642.71,302,594.22,329.15Z"/></svg>